<svg width="685" height="1046" viewBox="0 0 685 1046" fill="none" xmlns="http://www.w3.org/2000/svg">
<rect x="50" width="7" height="6" fill="#676C72"/>
<rect x="93" width="7" height="6" fill="#676C72"/>
<rect x="93" y="10" width="7" height="6" fill="#676C72"/>
<path fill-rule="evenodd" clip-rule="evenodd" d="M54 81.9412H94V125.505H54V81.9412ZM78 106.323V111.692L89 104.981V101.178L78 94.6914V100.507L82.6 103.639L78 106.323ZM70 111.692V106.323L64.9818 103.639L70 100.507V94.6914L58 101.178V104.981L70 111.692Z" fill="#676C72"/>
<path fill-rule="evenodd" clip-rule="evenodd" d="M94 143.567H134V187.131H94V143.567ZM118 167.949V173.318L129 166.607V162.805L118 156.318V162.134L122.6 165.265L118 167.949ZM110 173.318V167.949L104.982 165.265L110 162.134V156.318L98 162.805V166.607L110 173.318Z" fill="#676C72"/>
<path fill-rule="evenodd" clip-rule="evenodd" d="M94 470.824H134V514.387H94V470.824ZM118 495.206V500.574L129 493.864V490.061L118 483.574V489.39L122.6 492.522L118 495.206ZM110 500.574V495.206L104.982 492.522L110 489.39V483.574L98 490.061V493.864L110 500.574Z" fill="#FF4B4B"/>
<path d="M53.5 359.5V345.5H67.5L73.5 353.5L67.5 359.5H53.5Z" fill="#FF4B4B"/>
<path d="M94 433V419H108L114 427L108 433H94Z" fill="#676C72"/>
<rect x="50" y="211" width="8" height="5" fill="#D9D9D9"/>
<rect x="50" y="219" width="6" height="4" fill="#676C72"/>
<rect x="70" y="211" width="6" height="4" fill="#676C72"/>
<rect x="69" y="219" width="6" height="4" fill="#676C72"/>
<rect x="93" y="288" width="6" height="4" fill="#676C72"/>
<rect x="93" y="296" width="6" height="4" fill="#676C72"/>
<rect x="93" y="358" width="6" height="4" fill="#676C72"/>
<rect x="94" y="523" width="41" height="4" fill="#FF4B4B"/>
<rect x="51" y="491" width="5" height="4" fill="#676C72"/>
<rect x="53" y="632" width="15" height="14" fill="#676C72"/>
<rect x="217" y="625" width="15" height="14" fill="#981919"/>
<rect x="218" y="343" width="15" height="5" fill="#981919"/>
<rect x="228" y="132" width="15" height="5" fill="#981919"/>
<rect x="218" y="61" width="15" height="5" fill="#981919"/>
<rect x="218" y="647" width="6" height="6" fill="#981919"/>
<rect x="218" y="656" width="6" height="6" fill="#981919"/>
<rect x="50" y="743" width="128" height="5" fill="#2B343C"/>
<rect x="50" y="692" width="15" height="5" fill="#2B343C"/>
<rect x="53" y="657" width="3" height="3" fill="#676C72"/>
<rect x="53" y="665" width="3" height="3" fill="#676C72"/>
<rect x="175" y="833" width="3" height="3" fill="#2B343C"/>
<rect x="175" y="903" width="3" height="3" fill="#2B343C"/>
<rect x="294" y="903" width="3" height="3" fill="#2B343C"/>
<rect x="542" y="1043" width="17" height="3" fill="#2B343C"/>
<rect x="666" y="972" width="17" height="3" fill="#2B343C"/>
<rect x="668" y="692" width="17" height="3" fill="#2B343C"/>
<rect x="543" y="903" width="5" height="3" fill="#2B343C"/>
<rect x="294" y="834" width="3" height="3" fill="#2B343C"/>
<rect x="419" y="833" width="3" height="3" fill="#676C72"/>
<rect x="419" y="841" width="3" height="3" fill="#676C72"/>
<rect x="438" y="833" width="3" height="3" fill="#676C72"/>
<rect x="436" y="842" width="3" height="3" fill="#676C72"/>
<rect x="70" y="491" width="5" height="4" fill="#676C72"/>
<rect x="246" y="854" width="10" height="11" fill="#FF4B4B"/>
<rect x="358" y="884" width="10" height="11" fill="#FF4B4B"/>
</svg>
