<svg width="687" height="3086" viewBox="0 0 687 3086" fill="none" xmlns="http://www.w3.org/2000/svg">
<rect x="52" width="7" height="6" fill="#676C72"/>
<rect x="95" width="7" height="6" fill="#676C72"/>
<rect x="95" y="10" width="7" height="6" fill="#676C72"/>
<path fill-rule="evenodd" clip-rule="evenodd" d="M56 81.9411H96V125.504H56V81.9411ZM80 106.323V111.692L91 104.981V101.178L80 94.6914V100.507L84.6 103.639L80 106.323ZM72 111.692V106.323L66.9818 103.639L72 100.507V94.6914L60 101.178V104.981L72 111.692Z" fill="#676C72"/>
<path fill-rule="evenodd" clip-rule="evenodd" d="M96 143.567H136V187.131H96V143.567ZM120 167.949V173.318L131 166.607V162.805L120 156.318V162.133L124.6 165.265L120 167.949ZM112 173.318V167.949L106.982 165.265L112 162.133V156.318L100 162.805V166.607L112 173.318Z" fill="#676C72"/>
<path fill-rule="evenodd" clip-rule="evenodd" d="M96 470.824H136V514.387H96V470.824ZM120 495.206V500.574L131 493.864V490.061L120 483.574V489.39L124.6 492.521L120 495.206ZM112 500.574V495.206L106.982 492.521L112 489.39V483.574L100 490.061V493.864L112 500.574Z" fill="#FF4B4B"/>
<path d="M55.5 359.5V345.5H69.5L75.5 353.5L69.5 359.5H55.5Z" fill="#FF4B4B"/>
<path d="M96 433V419H110L116 427L110 433H96Z" fill="#676C72"/>
<rect x="52" y="211" width="8" height="5" fill="#D9D9D9"/>
<rect x="52" y="219" width="6" height="4" fill="#676C72"/>
<rect x="72" y="211" width="6" height="4" fill="#676C72"/>
<rect x="71" y="219" width="6" height="4" fill="#676C72"/>
<rect x="95" y="288" width="6" height="4" fill="#676C72"/>
<rect x="95" y="296" width="6" height="4" fill="#676C72"/>
<rect x="95" y="358" width="6" height="4" fill="#676C72"/>
<rect x="96" y="523" width="41" height="4" fill="#FF4B4B"/>
<rect x="53" y="491" width="5" height="4" fill="#676C72"/>
<rect x="55" y="632" width="15" height="14" fill="#676C72"/>
<rect x="219" y="625" width="15" height="14" fill="#981919"/>
<rect x="220" y="343" width="15" height="5" fill="#981919"/>
<rect x="230" y="132" width="15" height="5" fill="#981919"/>
<rect x="220" y="61" width="15" height="5" fill="#981919"/>
<rect x="220" y="647" width="6" height="6" fill="#981919"/>
<rect x="220" y="656" width="6" height="6" fill="#981919"/>
<rect x="52" y="743" width="128" height="5" fill="#2B343C"/>
<rect x="52" y="692" width="15" height="5" fill="#2B343C"/>
<rect x="55" y="657" width="3" height="3" fill="#676C72"/>
<rect x="55" y="665" width="3" height="3" fill="#676C72"/>
<rect x="177" y="833" width="3" height="3" fill="#2B343C"/>
<rect x="177" y="903" width="3" height="3" fill="#2B343C"/>
<rect x="296" y="903" width="3" height="3" fill="#2B343C"/>
<rect x="544" y="1043" width="17" height="3" fill="#2B343C"/>
<rect x="668" y="972" width="17" height="3" fill="#2B343C"/>
<rect x="670" y="692" width="17" height="3" fill="#2B343C"/>
<rect x="545" y="903" width="5" height="3" fill="#2B343C"/>
<rect x="296" y="834" width="3" height="3" fill="#2B343C"/>
<rect x="421" y="833" width="3" height="3" fill="#676C72"/>
<rect x="421" y="841" width="3" height="3" fill="#676C72"/>
<rect x="440" y="833" width="3" height="3" fill="#676C72"/>
<rect x="438" y="842" width="3" height="3" fill="#676C72"/>
<rect x="72" y="491" width="5" height="4" fill="#676C72"/>
<rect x="248" y="854" width="10" height="11" fill="#FF4B4B"/>
<rect x="360" y="884" width="10" height="11" fill="#FF4B4B"/>
<rect width="7" height="6" transform="matrix(-1 0 0 1 635 1011)" fill="#676C72"/>
<rect width="7" height="6" transform="matrix(-1 0 0 1 592 1011)" fill="#676C72"/>
<rect width="7" height="6" transform="matrix(-1 0 0 1 592 1021)" fill="#676C72"/>
<path fill-rule="evenodd" clip-rule="evenodd" d="M631 1092.94H591V1136.5H631V1092.94ZM607 1117.32V1122.69L596 1115.98V1112.18L607 1105.69V1111.51L602.4 1114.64L607 1117.32ZM615 1122.69V1117.32L620.018 1114.64L615 1111.51V1105.69L627 1112.18V1115.98L615 1122.69Z" fill="#676C72"/>
<path fill-rule="evenodd" clip-rule="evenodd" d="M591 1154.57H551V1198.13H591V1154.57ZM567 1178.95V1184.32L556 1177.61V1173.8L567 1167.32V1173.13L562.4 1176.27L567 1178.95ZM575 1184.32V1178.95L580.018 1176.27L575 1173.13V1167.32L587 1173.8V1177.61L575 1184.32Z" fill="#676C72"/>
<path fill-rule="evenodd" clip-rule="evenodd" d="M591 1481.82H551V1525.39H591V1481.82ZM567 1506.21V1511.57L556 1504.86V1501.06L567 1494.57V1500.39L562.4 1503.52L567 1506.21ZM575 1511.57V1506.21L580.018 1503.52L575 1500.39V1494.57L587 1501.06V1504.86L575 1511.57Z" fill="#FF4B4B"/>
<path d="M631.5 1370.5V1356.5H617.5L611.5 1364.5L617.5 1370.5H631.5Z" fill="#FF4B4B"/>
<path d="M591 1444V1430H577L571 1438L577 1444H591Z" fill="#676C72"/>
<rect width="8" height="5" transform="matrix(-1 0 0 1 635 1222)" fill="#D9D9D9"/>
<rect width="6" height="4" transform="matrix(-1 0 0 1 635 1230)" fill="#676C72"/>
<rect width="6" height="4" transform="matrix(-1 0 0 1 615 1222)" fill="#676C72"/>
<rect width="6" height="4" transform="matrix(-1 0 0 1 616 1230)" fill="#676C72"/>
<rect width="6" height="4" transform="matrix(-1 0 0 1 592 1299)" fill="#676C72"/>
<rect width="6" height="4" transform="matrix(-1 0 0 1 592 1307)" fill="#676C72"/>
<rect width="6" height="4" transform="matrix(-1 0 0 1 592 1369)" fill="#676C72"/>
<rect width="41" height="4" transform="matrix(-1 0 0 1 591 1534)" fill="#FF4B4B"/>
<rect width="5" height="4" transform="matrix(-1 0 0 1 634 1502)" fill="#676C72"/>
<rect width="15" height="14" transform="matrix(-1 0 0 1 632 1643)" fill="#676C72"/>
<rect width="15" height="14" transform="matrix(-1 0 0 1 468 1636)" fill="#981919"/>
<rect width="15" height="5" transform="matrix(-1 0 0 1 467 1354)" fill="#981919"/>
<rect width="15" height="5" transform="matrix(-1 0 0 1 457 1143)" fill="#981919"/>
<rect width="15" height="5" transform="matrix(-1 0 0 1 467 1072)" fill="#981919"/>
<rect width="6" height="6" transform="matrix(-1 0 0 1 467 1658)" fill="#981919"/>
<rect width="6" height="6" transform="matrix(-1 0 0 1 467 1667)" fill="#981919"/>
<rect width="128" height="5" transform="matrix(-1 0 0 1 635 1754)" fill="#2B343C"/>
<rect width="15" height="5" transform="matrix(-1 0 0 1 635 1703)" fill="#2B343C"/>
<rect width="3" height="3" transform="matrix(-1 0 0 1 632 1668)" fill="#676C72"/>
<rect width="3" height="3" transform="matrix(-1 0 0 1 632 1676)" fill="#676C72"/>
<rect width="3" height="3" transform="matrix(-1 0 0 1 510 1844)" fill="#2B343C"/>
<rect width="3" height="3" transform="matrix(-1 0 0 1 510 1914)" fill="#2B343C"/>
<rect width="3" height="3" transform="matrix(-1 0 0 1 391 1914)" fill="#2B343C"/>
<rect width="17" height="3" transform="matrix(-1 0 0 1 143 2054)" fill="#2B343C"/>
<rect width="17" height="3" transform="matrix(-1 0 0 1 19 1983)" fill="#2B343C"/>
<rect width="17" height="3" transform="matrix(-1 0 0 1 17 1703)" fill="#2B343C"/>
<rect width="5" height="3" transform="matrix(-1 0 0 1 142 1914)" fill="#2B343C"/>
<rect width="3" height="3" transform="matrix(-1 0 0 1 391 1845)" fill="#2B343C"/>
<rect width="3" height="3" transform="matrix(-1 0 0 1 266 1844)" fill="#676C72"/>
<rect width="3" height="3" transform="matrix(-1 0 0 1 266 1852)" fill="#676C72"/>
<rect width="3" height="3" transform="matrix(-1 0 0 1 247 1844)" fill="#676C72"/>
<rect width="3" height="3" transform="matrix(-1 0 0 1 249 1853)" fill="#676C72"/>
<rect width="5" height="4" transform="matrix(-1 0 0 1 615 1502)" fill="#676C72"/>
<rect width="10" height="11" transform="matrix(-1 0 0 1 439 1865)" fill="#FF4B4B"/>
<rect width="10" height="11" transform="matrix(-1 0 0 1 327 1895)" fill="#FF4B4B"/>
<rect x="50" y="2040" width="7" height="6" fill="#676C72"/>
<rect x="93" y="2040" width="7" height="6" fill="#676C72"/>
<rect x="93" y="2050" width="7" height="6" fill="#676C72"/>
<path fill-rule="evenodd" clip-rule="evenodd" d="M54 2121.94H94V2165.5H54V2121.94ZM78 2146.32V2151.69L89 2144.98V2141.18L78 2134.69V2140.51L82.6 2143.64L78 2146.32ZM70 2151.69V2146.32L64.9818 2143.64L70 2140.51V2134.69L58 2141.18V2144.98L70 2151.69Z" fill="#676C72"/>
<path fill-rule="evenodd" clip-rule="evenodd" d="M94 2183.57H134V2227.13H94V2183.57ZM118 2207.95V2213.32L129 2206.61V2202.8L118 2196.32V2202.13L122.6 2205.27L118 2207.95ZM110 2213.32V2207.95L104.982 2205.27L110 2202.13V2196.32L98 2202.8V2206.61L110 2213.32Z" fill="#676C72"/>
<path fill-rule="evenodd" clip-rule="evenodd" d="M94 2510.82H134V2554.39H94V2510.82ZM118 2535.21V2540.57L129 2533.86V2530.06L118 2523.57V2529.39L122.6 2532.52L118 2535.21ZM110 2540.57V2535.21L104.982 2532.52L110 2529.39V2523.57L98 2530.06V2533.86L110 2540.57Z" fill="#FF4B4B"/>
<path d="M53.5 2399.5V2385.5H67.5L73.5 2393.5L67.5 2399.5H53.5Z" fill="#FF4B4B"/>
<path d="M94 2473V2459H108L114 2467L108 2473H94Z" fill="#676C72"/>
<rect x="50" y="2251" width="8" height="5" fill="#D9D9D9"/>
<rect x="50" y="2259" width="6" height="4" fill="#676C72"/>
<rect x="70" y="2251" width="6" height="4" fill="#676C72"/>
<rect x="69" y="2259" width="6" height="4" fill="#676C72"/>
<rect x="93" y="2328" width="6" height="4" fill="#676C72"/>
<rect x="93" y="2336" width="6" height="4" fill="#676C72"/>
<rect x="93" y="2398" width="6" height="4" fill="#676C72"/>
<rect x="94" y="2563" width="41" height="4" fill="#FF4B4B"/>
<rect x="51" y="2531" width="5" height="4" fill="#676C72"/>
<rect x="53" y="2672" width="15" height="14" fill="#676C72"/>
<rect x="217" y="2665" width="15" height="14" fill="#981919"/>
<rect x="218" y="2383" width="15" height="5" fill="#981919"/>
<rect x="228" y="2172" width="15" height="5" fill="#981919"/>
<rect x="218" y="2101" width="15" height="5" fill="#981919"/>
<rect x="218" y="2687" width="6" height="6" fill="#981919"/>
<rect x="218" y="2696" width="6" height="6" fill="#981919"/>
<rect x="50" y="2783" width="128" height="5" fill="#2B343C"/>
<rect x="50" y="2732" width="15" height="5" fill="#2B343C"/>
<rect x="53" y="2697" width="3" height="3" fill="#676C72"/>
<rect x="53" y="2705" width="3" height="3" fill="#676C72"/>
<rect x="175" y="2873" width="3" height="3" fill="#2B343C"/>
<rect x="175" y="2943" width="3" height="3" fill="#2B343C"/>
<rect x="294" y="2943" width="3" height="3" fill="#2B343C"/>
<rect x="542" y="3083" width="17" height="3" fill="#2B343C"/>
<rect x="666" y="3012" width="17" height="3" fill="#2B343C"/>
<rect x="668" y="2732" width="17" height="3" fill="#2B343C"/>
<rect x="543" y="2943" width="5" height="3" fill="#2B343C"/>
<rect x="294" y="2874" width="3" height="3" fill="#2B343C"/>
<rect x="419" y="2873" width="3" height="3" fill="#676C72"/>
<rect x="419" y="2881" width="3" height="3" fill="#676C72"/>
<rect x="438" y="2873" width="3" height="3" fill="#676C72"/>
<rect x="436" y="2882" width="3" height="3" fill="#676C72"/>
<rect x="70" y="2531" width="5" height="4" fill="#676C72"/>
<rect x="246" y="2894" width="10" height="11" fill="#FF4B4B"/>
<rect x="358" y="2924" width="10" height="11" fill="#FF4B4B"/>
</svg>
